<svg width="512" height="512" viewBox="0 0 512 512" fill="none" xmlns="http://www.w3.org/2000/svg">
<rect width="512" height="512" fill="#FAF6ED"/>
<path d="M421.854 410.97C426.273 410.97 429.854 414.552 429.854 418.97V449.5C429.854 453.918 426.273 457.5 421.854 457.5H268.126C263.708 457.5 260.126 453.918 260.126 449.5V288.348C260.126 283.93 263.708 280.348 268.126 280.348H421.854C426.273 280.348 429.854 283.93 429.854 288.348V326.045C429.854 330.463 426.273 334.045 421.854 334.045H376.638C372.662 334.045 369.438 337.268 369.438 341.245V341.245C369.438 345.221 372.662 348.444 376.638 348.444H421.854C426.273 348.444 429.854 352.026 429.854 356.444V388.06C429.854 392.478 426.273 396.06 421.854 396.06H376.893C372.776 396.06 369.438 399.398 369.438 403.515V403.515C369.438 407.632 372.776 410.97 376.893 410.97H421.854Z" fill="#F4B860"/>
<path d="M241.324 280.348C245.743 280.348 249.324 283.93 249.324 288.348V376.317C249.324 380.722 245.763 384.299 241.358 384.317L195.312 384.507C190.917 384.525 187.36 388.085 187.345 392.479L187.144 449.528C187.129 453.935 183.552 457.5 179.144 457.5H88.8765C84.4582 457.5 80.8765 453.918 80.8765 449.5V288.348C80.8765 283.93 84.4582 280.348 88.8765 280.348H241.324ZM202.905 349.53C207.324 349.53 210.905 345.948 210.905 341.53V334.62C210.905 330.202 207.324 326.62 202.905 326.62H195.116C190.698 326.62 187.116 330.202 187.116 334.62V341.53C187.116 345.948 190.698 349.53 195.116 349.53H202.905Z" fill="#F4B860"/>
<path d="M430.318 157L430.317 178.283C430.046 224.565 392.444 262.001 346.097 262.001C299.605 262.001 261.911 224.767 261.876 178.283V157C261.876 110.486 299.583 72.7792 346.097 72.7792C392.611 72.7792 430.318 110.486 430.318 157Z" fill="#F4B860"/>
<path d="M346.097 72.7792C392.611 72.7793 430.318 110.486 430.318 157L430.316 178.282C430.046 224.565 392.444 262.002 346.097 262.002C340.611 262.002 335.247 261.482 330.052 260.491C368.778 253.065 398.077 219.117 398.315 178.282L398.316 157C398.316 115.957 368.958 81.7709 330.096 74.2968C335.277 73.3004 340.626 72.7792 346.097 72.7792Z" fill="#32373B"/>
<path d="M243.116 79.104C247.535 79.104 251.116 82.6857 251.116 87.104V248C251.116 252.418 247.535 256 243.116 256H204.588C200.17 256 196.588 252.418 196.588 248V209.728C196.588 205.31 193.007 201.728 188.588 201.728H181.675C177.257 201.728 173.675 205.31 173.675 209.728V248C173.675 252.418 170.094 256 165.675 256H88.8765C84.4582 256 80.8765 252.418 80.8765 248V87.104C80.8765 82.6857 84.4582 79.104 88.8765 79.104H165.675C170.094 79.104 173.675 82.6857 173.675 87.104V112.064C173.675 116.482 177.257 120.064 181.675 120.064H188.588C193.007 120.064 196.588 116.482 196.588 112.064V87.104C196.588 82.6857 200.17 79.104 204.588 79.104H243.116Z" fill="#F4B860"/>
</svg>
