<svg class="hero__tagline" width="272" height="126" viewBox="0 0 272 126" fill="none" xmlns="http://www.w3.org/2000/svg">
<path d="M94.7012 0.600006H117.293V5.94401H101.421L102.861 4.50401V19.096L101.421 17.656H117.517V23H94.7012V0.600006ZM99.3412 8.98401H113.485V14.2H99.3412V8.98401Z" fill="#F4B860"/>
<path d="M65.9512 0.600006H82.1432C84.3618 0.600006 86.2285 0.866673 87.7432 1.40001C89.2792 1.93334 90.4312 2.73334 91.1992 3.80001C91.9672 4.84534 92.3512 6.13601 92.3512 7.67201C92.3512 9.27201 91.9458 10.6373 91.1352 11.768C90.3245 12.8987 89.1512 13.7627 87.6152 14.36C86.0792 14.9573 84.2338 15.256 82.0792 15.256H70.5912V10.04H81.4712C82.3245 10.04 82.9858 9.84801 83.4552 9.46401C83.9458 9.08001 84.1912 8.55734 84.1912 7.89601C84.1912 7.44801 84.0845 7.07467 83.8712 6.77601C83.6578 6.45601 83.3485 6.22134 82.9432 6.07201C82.5378 5.90134 82.0472 5.81601 81.4712 5.81601H72.6712L74.1112 3.89601V23H65.9512V0.600006Z" fill="#F4B860"/>
<path d="M47.355 23.544C44.2403 23.544 41.5096 23.0853 39.163 22.168C36.8163 21.2293 35.003 19.896 33.723 18.168C32.4643 16.4187 31.835 14.3493 31.835 11.96C31.835 9.63468 32.4963 7.57601 33.819 5.78401C35.163 3.97068 37.019 2.57335 39.387 1.59201C41.7763 0.589346 44.4856 0.0880127 47.515 0.0880127C50.6296 0.0880127 53.3603 0.568013 55.707 1.52801C58.0536 2.46668 59.867 3.81068 61.147 5.56001C62.427 7.30935 63.067 9.35735 63.067 11.704C63.067 14.072 62.395 16.152 61.051 17.944C59.7283 19.736 57.8723 21.1227 55.483 22.104C53.115 23.064 50.4056 23.544 47.355 23.544ZM47.451 17.912C48.8376 17.912 50.0536 17.6667 51.099 17.176C52.1443 16.6853 52.955 15.9813 53.531 15.064C54.1283 14.1467 54.427 13.0587 54.427 11.8C54.427 10.584 54.1283 9.51735 53.531 8.60001C52.955 7.68268 52.1443 6.97868 51.099 6.48801C50.0536 5.99735 48.8376 5.75201 47.451 5.75201C46.043 5.75201 44.8056 5.99735 43.739 6.48801C42.6936 6.95735 41.883 7.65068 41.307 8.56801C40.731 9.48535 40.443 10.5627 40.443 11.8C40.443 13.0587 40.731 14.1467 41.307 15.064C41.9043 15.9813 42.7256 16.6853 43.771 17.176C44.8376 17.6667 46.0643 17.912 47.451 17.912Z" fill="#F4B860"/>
<path d="M20.7919 0.600006H28.9519V23H20.7919V0.600006ZM0.919922 0.600006H9.07992V23H0.919922V0.600006ZM5.55992 8.53601H22.9359V14.488H5.55992V8.53601Z" fill="#F4B860"/>
<path class="hero__tagline__letter" d="M244.264 33.056H254.28L265.416 47.648L264.616 47.936L264.456 44.768V33.056H271.368V55.456H262.696L250.152 39.04L250.888 38.752L251.176 41.952V55.456H244.264V33.056Z" fill="#FAF6ED"/>
<path class="hero__tagline__letter" d="M225.667 56C222.553 56 219.822 55.5413 217.475 54.624C215.129 53.6853 213.315 52.352 212.035 50.624C210.777 48.8747 210.147 46.8053 210.147 44.416C210.147 42.0907 210.809 40.032 212.131 38.24C213.475 36.4267 215.331 35.0293 217.699 34.048C220.089 33.0453 222.798 32.544 225.827 32.544C228.942 32.544 231.673 33.024 234.019 33.984C236.366 34.9227 238.179 36.2667 239.459 38.016C240.739 39.7653 241.379 41.8133 241.379 44.16C241.379 46.528 240.707 48.608 239.363 50.4C238.041 52.192 236.185 53.5787 233.795 54.56C231.427 55.52 228.718 56 225.667 56ZM225.763 50.368C227.15 50.368 228.366 50.1227 229.411 49.632C230.457 49.1413 231.267 48.4373 231.843 47.52C232.441 46.6027 232.739 45.5147 232.739 44.256C232.739 43.04 232.441 41.9733 231.843 41.056C231.267 40.1387 230.457 39.4347 229.411 38.944C228.366 38.4533 227.15 38.208 225.763 38.208C224.355 38.208 223.118 38.4533 222.051 38.944C221.006 39.4133 220.195 40.1067 219.619 41.024C219.043 41.9413 218.755 43.0187 218.755 44.256C218.755 45.5147 219.043 46.6027 219.619 47.52C220.217 48.4373 221.038 49.1413 222.083 49.632C223.15 50.1227 224.377 50.368 225.763 50.368Z" fill="#FAF6ED"/>
<path class="hero__tagline__letter" d="M180.326 33.056H193.286C196.38 33.056 199.046 33.504 201.286 34.4C203.526 35.296 205.233 36.5867 206.406 38.272C207.601 39.936 208.198 41.8987 208.198 44.16C208.198 46.4213 207.58 48.4053 206.342 50.112C205.126 51.8187 203.377 53.1413 201.094 54.08C198.812 54.9973 196.156 55.456 193.126 55.456H183.75V49.664H192.902C194.374 49.664 195.612 49.4507 196.614 49.024C197.617 48.576 198.374 47.9467 198.886 47.136C199.398 46.3253 199.654 45.3653 199.654 44.256C199.654 43.1467 199.398 42.1973 198.886 41.408C198.396 40.5973 197.638 39.9787 196.614 39.552C195.612 39.104 194.374 38.88 192.902 38.88H187.046L188.486 37.44V55.456H180.326V33.056Z" fill="#FAF6ED"/>
<path class="hero__tagline__letter" d="M149.389 33.056H159.405L170.541 47.648L169.741 47.936L169.581 44.768V33.056H176.493V55.456H167.821L155.277 39.04L156.013 38.752L156.301 41.952V55.456H149.389V33.056Z" fill="#FAF6ED"/>
<path class="hero__tagline__letter" d="M130.792 56C127.678 56 124.947 55.5413 122.6 54.624C120.254 53.6853 118.44 52.352 117.16 50.624C115.902 48.8747 115.272 46.8053 115.272 44.416C115.272 42.0907 115.934 40.032 117.256 38.24C118.6 36.4267 120.456 35.0293 122.824 34.048C125.214 33.0453 127.923 32.544 130.952 32.544C134.067 32.544 136.798 33.024 139.144 33.984C141.491 34.9227 143.304 36.2667 144.584 38.016C145.864 39.7653 146.504 41.8133 146.504 44.16C146.504 46.528 145.832 48.608 144.488 50.4C143.166 52.192 141.31 53.5787 138.92 54.56C136.552 55.52 133.843 56 130.792 56ZM130.888 50.368C132.275 50.368 133.491 50.1227 134.536 49.632C135.582 49.1413 136.392 48.4373 136.968 47.52C137.566 46.6027 137.864 45.5147 137.864 44.256C137.864 43.04 137.566 41.9733 136.968 41.056C136.392 40.1387 135.582 39.4347 134.536 38.944C133.491 38.4533 132.275 38.208 130.888 38.208C129.48 38.208 128.243 38.4533 127.176 38.944C126.131 39.4133 125.32 40.1067 124.744 41.024C124.168 41.9413 123.88 43.0187 123.88 44.256C123.88 45.5147 124.168 46.6027 124.744 47.52C125.342 48.4373 126.163 49.1413 127.208 49.632C128.275 50.1227 129.502 50.368 130.888 50.368Z" fill="#FAF6ED"/>
<path class="hero__tagline__letter" d="M93.9512 33.056H102.111V51.552L100.671 50.112H115.039V55.456H93.9512V33.056Z" fill="#FAF6ED"/>
<path class="hero__tagline__letter" d="M57.2012 33.056H73.7452C77.0518 33.056 79.5158 33.6213 81.1372 34.752C82.7585 35.8827 83.5692 37.5787 83.5692 39.84C83.5692 41.312 83.1318 42.5813 82.2572 43.648C81.3825 44.6933 80.1452 45.4933 78.5452 46.048C76.9665 46.6027 75.1212 46.88 73.0092 46.88H61.8412V42.176H72.7532C73.5852 42.176 74.2252 41.9947 74.6732 41.632C75.1425 41.248 75.3772 40.736 75.3772 40.096C75.3772 39.456 75.1532 38.9653 74.7052 38.624C74.2572 38.2613 73.6065 38.08 72.7532 38.08H63.9212L65.3612 36.352V55.456H57.2012V33.056ZM70.5452 44.928H78.4812L83.1532 55.456H74.7372L70.5452 44.928Z" fill="#FAF6ED"/>
<path class="hero__tagline__letter" d="M38.605 56C35.4903 56 32.7596 55.5413 30.413 54.624C28.0663 53.6853 26.253 52.352 24.973 50.624C23.7143 48.8747 23.085 46.8053 23.085 44.416C23.085 42.0907 23.7463 40.032 25.069 38.24C26.413 36.4267 28.269 35.0293 30.637 34.048C33.0263 33.0453 35.7356 32.544 38.765 32.544C41.8796 32.544 44.6103 33.024 46.957 33.984C49.3036 34.9227 51.117 36.2667 52.397 38.016C53.677 39.7653 54.317 41.8133 54.317 44.16C54.317 46.528 53.645 48.608 52.301 50.4C50.9783 52.192 49.1223 53.5787 46.733 54.56C44.365 55.52 41.6556 56 38.605 56ZM38.701 50.368C40.0876 50.368 41.3036 50.1227 42.349 49.632C43.3943 49.1413 44.205 48.4373 44.781 47.52C45.3783 46.6027 45.677 45.5147 45.677 44.256C45.677 43.04 45.3783 41.9733 44.781 41.056C44.205 40.1387 43.3943 39.4347 42.349 38.944C41.3036 38.4533 40.0876 38.208 38.701 38.208C37.293 38.208 36.0556 38.4533 34.989 38.944C33.9436 39.4133 33.133 40.1067 32.557 41.024C31.981 41.9413 31.693 43.0187 31.693 44.256C31.693 45.5147 31.981 46.6027 32.557 47.52C33.1543 48.4373 33.9756 49.1413 35.021 49.632C36.0876 50.1227 37.3143 50.368 38.701 50.368Z" fill="#FAF6ED"/>
<path class="hero__tagline__letter" d="M0.919922 33.056H22.4559V38.4H7.63992L9.07992 36.96V55.456H0.919922V33.056ZM5.55992 41.792H18.9999V47.008H5.55992V41.792Z" fill="#FAF6ED"/>
<path class="hero__tagline__letter" d="M94.7012 65.512H117.293V70.856H101.421L102.861 69.416V84.008L101.421 82.568H117.517V87.912H94.7012V65.512ZM99.3412 73.896H113.485V79.112H99.3412V73.896Z" fill="#FAF6ED"/>
<path class="hero__tagline__letter" d="M65.9512 65.512H82.1432C84.3618 65.512 86.2285 65.7787 87.7432 66.312C89.2792 66.8454 90.4312 67.6454 91.1992 68.712C91.9672 69.7574 92.3512 71.048 92.3512 72.584C92.3512 74.184 91.9458 75.5494 91.1352 76.68C90.3245 77.8107 89.1512 78.6747 87.6152 79.272C86.0792 79.8694 84.2338 80.168 82.0792 80.168H70.5912V74.952H81.4712C82.3245 74.952 82.9858 74.76 83.4552 74.376C83.9458 73.992 84.1912 73.4694 84.1912 72.808C84.1912 72.36 84.0845 71.9867 83.8712 71.688C83.6578 71.368 83.3485 71.1334 82.9432 70.984C82.5378 70.8134 82.0472 70.728 81.4712 70.728H72.6712L74.1112 68.808V87.912H65.9512V65.512Z" fill="#FAF6ED"/>
<path class="hero__tagline__letter" d="M47.355 88.456C44.2403 88.456 41.5096 87.9974 39.163 87.08C36.8163 86.1414 35.003 84.808 33.723 83.08C32.4643 81.3307 31.835 79.2614 31.835 76.872C31.835 74.5467 32.4963 72.488 33.819 70.696C35.163 68.8827 37.019 67.4853 39.387 66.504C41.7763 65.5013 44.4856 65 47.515 65C50.6296 65 53.3603 65.48 55.707 66.44C58.0536 67.3787 59.867 68.7227 61.147 70.472C62.427 72.2213 63.067 74.2694 63.067 76.616C63.067 78.984 62.395 81.064 61.051 82.856C59.7283 84.648 57.8723 86.0347 55.483 87.016C53.115 87.976 50.4056 88.456 47.355 88.456ZM47.451 82.824C48.8376 82.824 50.0536 82.5787 51.099 82.088C52.1443 81.5974 52.955 80.8934 53.531 79.976C54.1283 79.0587 54.427 77.9707 54.427 76.712C54.427 75.496 54.1283 74.4293 53.531 73.512C52.955 72.5947 52.1443 71.8907 51.099 71.4C50.0536 70.9094 48.8376 70.664 47.451 70.664C46.043 70.664 44.8056 70.9094 43.739 71.4C42.6936 71.8694 41.883 72.5627 41.307 73.48C40.731 74.3974 40.443 75.4747 40.443 76.712C40.443 77.9707 40.731 79.0587 41.307 79.976C41.9043 80.8934 42.7256 81.5974 43.771 82.088C44.8376 82.5787 46.0643 82.824 47.451 82.824Z" fill="#FAF6ED"/>
<path class="hero__tagline__letter" d="M20.7919 65.512H28.9519V87.912H20.7919V65.512ZM0.919922 65.512H9.07992V87.912H0.919922V65.512ZM5.55992 73.448H22.9359V79.4H5.55992V73.448Z" fill="#FAF6ED"/>
<path class="hero__tagline__letter" d="M164.158 120.976C161.385 120.976 159.017 120.592 157.054 119.824C155.113 119.035 153.62 117.851 152.574 116.272C151.55 114.672 151.038 112.688 151.038 110.32V97.968H159.198V109.712C159.198 110.907 159.422 111.909 159.87 112.72C160.318 113.509 160.937 114.107 161.726 114.512C162.516 114.896 163.444 115.088 164.51 115.088C165.534 115.088 166.43 114.896 167.198 114.512C167.966 114.107 168.564 113.509 168.99 112.72C169.438 111.909 169.662 110.907 169.662 109.712V97.968H176.862V109.808C176.862 112.155 176.35 114.171 175.326 115.856C174.302 117.52 172.83 118.789 170.91 119.664C169.012 120.539 166.761 120.976 164.158 120.976Z" fill="#FAF6ED"/>
<path class="hero__tagline__letter" d="M132.73 120.912C129.615 120.912 126.885 120.453 124.538 119.536C122.191 118.597 120.378 117.264 119.098 115.536C117.839 113.787 117.21 111.717 117.21 109.328C117.21 107.003 117.871 104.944 119.194 103.152C120.538 101.339 122.394 99.9414 124.762 98.96C127.151 97.9574 129.861 97.456 132.89 97.456C136.005 97.456 138.735 97.936 141.082 98.896C143.429 99.8347 145.242 101.179 146.522 102.928C147.802 104.677 148.442 106.725 148.442 109.072C148.442 111.44 147.77 113.52 146.426 115.312C145.103 117.104 143.247 118.491 140.858 119.472C138.49 120.432 135.781 120.912 132.73 120.912ZM132.826 115.28C134.213 115.28 135.429 115.035 136.474 114.544C137.519 114.053 138.33 113.349 138.906 112.432C139.503 111.515 139.802 110.427 139.802 109.168C139.802 107.952 139.503 106.885 138.906 105.968C138.33 105.051 137.519 104.347 136.474 103.856C135.429 103.365 134.213 103.12 132.826 103.12C131.418 103.12 130.181 103.365 129.114 103.856C128.069 104.325 127.258 105.019 126.682 105.936C126.106 106.853 125.818 107.931 125.818 109.168C125.818 110.427 126.106 111.515 126.682 112.432C127.279 113.349 128.101 114.053 129.146 114.544C130.213 115.035 131.439 115.28 132.826 115.28Z" fill="#FAF6ED"/>
<path class="hero__tagline__letter" d="M90.5229 97.968H100.091L106.619 106.32H105.179L111.771 97.968H119.515L108.923 110.736H101.019L90.5229 97.968ZM100.859 107.888H109.019V120.368H100.859V107.888Z" fill="#FAF6ED"/>
<path class="hero__tagline__letter" d="M57.2012 97.968H73.7452C77.0518 97.968 79.5158 98.5334 81.1372 99.664C82.7585 100.795 83.5692 102.491 83.5692 104.752C83.5692 106.224 83.1318 107.493 82.2572 108.56C81.3825 109.605 80.1452 110.405 78.5452 110.96C76.9665 111.515 75.1212 111.792 73.0092 111.792H61.8412V107.088H72.7532C73.5852 107.088 74.2252 106.907 74.6732 106.544C75.1425 106.16 75.3772 105.648 75.3772 105.008C75.3772 104.368 75.1532 103.877 74.7052 103.536C74.2572 103.173 73.6065 102.992 72.7532 102.992H63.9212L65.3612 101.264V120.368H57.2012V97.968ZM70.5452 109.84H78.4812L83.1532 120.368H74.7372L70.5452 109.84Z" fill="#FAF6ED"/>
<path class="hero__tagline__letter" d="M38.605 120.912C35.4903 120.912 32.7596 120.453 30.413 119.536C28.0663 118.597 26.253 117.264 24.973 115.536C23.7143 113.787 23.085 111.717 23.085 109.328C23.085 107.003 23.7463 104.944 25.069 103.152C26.413 101.339 28.269 99.9414 30.637 98.96C33.0263 97.9574 35.7356 97.456 38.765 97.456C41.8796 97.456 44.6103 97.936 46.957 98.896C49.3036 99.8347 51.117 101.179 52.397 102.928C53.677 104.677 54.317 106.725 54.317 109.072C54.317 111.44 53.645 113.52 52.301 115.312C50.9783 117.104 49.1223 118.491 46.733 119.472C44.365 120.432 41.6556 120.912 38.605 120.912ZM38.701 115.28C40.0876 115.28 41.3036 115.035 42.349 114.544C43.3943 114.053 44.205 113.349 44.781 112.432C45.3783 111.515 45.677 110.427 45.677 109.168C45.677 107.952 45.3783 106.885 44.781 105.968C44.205 105.051 43.3943 104.347 42.349 103.856C41.3036 103.365 40.0876 103.12 38.701 103.12C37.293 103.12 36.0556 103.365 34.989 103.856C33.9436 104.325 33.133 105.019 32.557 105.936C31.981 106.853 31.693 107.931 31.693 109.168C31.693 110.427 31.981 111.515 32.557 112.432C33.1543 113.349 33.9756 114.053 35.021 114.544C36.0876 115.035 37.3143 115.28 38.701 115.28Z" fill="#FAF6ED"/>
<path class="hero__tagline__letter" d="M0.919922 97.968H22.4559V103.312H7.63992L9.07992 101.872V120.368H0.919922V97.968ZM5.55992 106.704H18.9999V111.92H5.55992V106.704Z" fill="#FAF6ED"/>
</svg>
