<svg width="1194" height="167" viewBox="0 0 1194 167" fill="none" xmlns="http://www.w3.org/2000/svg">
<path d="M60.376 1.8H84.856V69H60.376V1.8ZM0.76 1.8H25.24V69H0.76V1.8ZM14.68 25.608H66.808V43.464H14.68V25.608ZM140.065 70.632C130.721 70.632 122.529 69.256 115.489 66.504C108.449 63.688 103.009 59.688 99.169 54.504C95.393 49.256 93.505 43.048 93.505 35.88C93.505 28.904 95.489 22.728 99.457 17.352C103.489 11.912 109.057 7.72 116.161 4.776C123.329 1.768 131.457 0.263998 140.545 0.263998C149.889 0.263998 158.081 1.704 165.121 4.584C172.161 7.4 177.601 11.432 181.441 16.68C185.281 21.928 187.201 28.072 187.201 35.112C187.201 42.216 185.185 48.456 181.153 53.832C177.185 59.208 171.617 63.368 164.449 66.312C157.345 69.192 149.217 70.632 140.065 70.632ZM140.353 53.736C144.513 53.736 148.161 53 151.297 51.528C154.433 50.056 156.865 47.944 158.593 45.192C160.385 42.44 161.281 39.176 161.281 35.4C161.281 31.752 160.385 28.552 158.593 25.8C156.865 23.048 154.433 20.936 151.297 19.464C148.161 17.992 144.513 17.256 140.353 17.256C136.129 17.256 132.417 17.992 129.217 19.464C126.081 20.872 123.649 22.952 121.921 25.704C120.193 28.456 119.329 31.688 119.329 35.4C119.329 39.176 120.193 42.44 121.921 45.192C123.713 47.944 126.177 50.056 129.313 51.528C132.513 53 136.193 53.736 140.353 53.736ZM195.854 1.8H244.43C251.086 1.8 256.686 2.6 261.23 4.2C265.838 5.8 269.294 8.2 271.598 11.4C273.902 14.536 275.054 18.408 275.054 23.016C275.054 27.816 273.838 31.912 271.406 35.304C268.974 38.696 265.454 41.288 260.846 43.08C256.238 44.872 250.702 45.768 244.238 45.768H209.774V30.12H242.414C244.974 30.12 246.958 29.544 248.366 28.392C249.838 27.24 250.574 25.672 250.574 23.688C250.574 22.344 250.254 21.224 249.614 20.328C248.974 19.368 248.046 18.664 246.83 18.216C245.614 17.704 244.142 17.448 242.414 17.448H216.014L220.334 11.688V69H195.854V1.8ZM282.104 1.8H349.88V17.832H302.264L306.584 13.512V57.288L302.264 52.968H350.552V69H282.104V1.8ZM296.024 26.952H338.456V42.6H296.024V26.952Z" fill="#F4B860"/>
<path d="M382.323 1.8H446.931V17.832H402.483L406.803 13.512V69H382.323V1.8ZM396.243 28.008H436.562V43.656H396.243V28.008ZM495.378 70.632C486.034 70.632 477.842 69.256 470.802 66.504C463.762 63.688 458.322 59.688 454.482 54.504C450.706 49.256 448.818 43.048 448.818 35.88C448.818 28.904 450.802 22.728 454.77 17.352C458.802 11.912 464.37 7.72 471.474 4.776C478.642 1.768 486.77 0.263998 495.858 0.263998C505.202 0.263998 513.394 1.704 520.434 4.584C527.474 7.4 532.914 11.432 536.754 16.68C540.594 21.928 542.514 28.072 542.514 35.112C542.514 42.216 540.498 48.456 536.466 53.832C532.498 59.208 526.93 63.368 519.762 66.312C512.658 69.192 504.53 70.632 495.378 70.632ZM495.666 53.736C499.826 53.736 503.474 53 506.61 51.528C509.746 50.056 512.178 47.944 513.906 45.192C515.698 42.44 516.594 39.176 516.594 35.4C516.594 31.752 515.698 28.552 513.906 25.8C512.178 23.048 509.746 20.936 506.61 19.464C503.474 17.992 499.826 17.256 495.666 17.256C491.442 17.256 487.73 17.992 484.53 19.464C481.394 20.872 478.962 22.952 477.234 25.704C475.506 28.456 474.642 31.688 474.642 35.4C474.642 39.176 475.506 42.44 477.234 45.192C479.026 47.944 481.49 50.056 484.626 51.528C487.826 53 491.506 53.736 495.666 53.736ZM551.166 1.8H600.798C610.718 1.8 618.11 3.496 622.974 6.888C627.838 10.28 630.27 15.368 630.27 22.152C630.27 26.568 628.958 30.376 626.334 33.576C623.71 36.712 619.998 39.112 615.198 40.776C610.462 42.44 604.926 43.272 598.59 43.272H565.086V29.16H597.822C600.318 29.16 602.238 28.616 603.582 27.528C604.99 26.376 605.694 24.84 605.694 22.92C605.694 21 605.022 19.528 603.678 18.504C602.334 17.416 600.382 16.872 597.822 16.872H571.326L575.646 11.688V69H551.166V1.8ZM591.198 37.416H615.006L629.022 69H603.774L591.198 37.416ZM661.416 1.8H685.896V57.288L681.576 52.968H724.68V69H661.416V1.8ZM771.94 70.632C762.596 70.632 754.404 69.256 747.364 66.504C740.324 63.688 734.884 59.688 731.044 54.504C727.268 49.256 725.38 43.048 725.38 35.88C725.38 28.904 727.364 22.728 731.332 17.352C735.364 11.912 740.932 7.72 748.036 4.776C755.204 1.768 763.332 0.263998 772.42 0.263998C781.764 0.263998 789.956 1.704 796.996 4.584C804.036 7.4 809.476 11.432 813.316 16.68C817.156 21.928 819.076 28.072 819.076 35.112C819.076 42.216 817.06 48.456 813.028 53.832C809.06 59.208 803.492 63.368 796.324 66.312C789.22 69.192 781.092 70.632 771.94 70.632ZM772.228 53.736C776.388 53.736 780.036 53 783.172 51.528C786.308 50.056 788.74 47.944 790.468 45.192C792.26 42.44 793.156 39.176 793.156 35.4C793.156 31.752 792.26 28.552 790.468 25.8C788.74 23.048 786.308 20.936 783.172 19.464C780.036 17.992 776.388 17.256 772.228 17.256C768.004 17.256 764.292 17.992 761.092 19.464C757.956 20.872 755.524 22.952 753.796 25.704C752.068 28.456 751.204 31.688 751.204 35.4C751.204 39.176 752.068 42.44 753.796 45.192C755.588 47.944 758.052 50.056 761.188 51.528C764.388 53 768.068 53.736 772.228 53.736ZM827.729 1.8H857.777L891.185 45.576L888.785 46.44L888.305 36.936V1.8H909.041V69H883.025L845.393 19.752L847.601 18.888L848.465 28.488V69H827.729V1.8ZM920.541 1.8H959.421C968.701 1.8 976.701 3.144 983.421 5.832C990.141 8.51999 995.261 12.392 998.781 17.448C1002.37 22.44 1004.16 28.328 1004.16 35.112C1004.16 41.896 1002.3 47.848 998.589 52.968C994.941 58.088 989.693 62.056 982.845 64.872C975.997 67.624 968.029 69 958.941 69H930.813V51.624H958.269C962.685 51.624 966.397 50.984 969.405 49.704C972.413 48.36 974.685 46.472 976.221 44.04C977.757 41.608 978.525 38.728 978.525 35.4C978.525 32.072 977.757 29.224 976.221 26.856C974.749 24.424 972.477 22.568 969.405 21.288C966.397 19.944 962.685 19.272 958.269 19.272H940.701L945.021 14.952V69H920.541V1.8ZM1056.57 70.632C1047.22 70.632 1039.03 69.256 1031.99 66.504C1024.95 63.688 1019.51 59.688 1015.67 54.504C1011.89 49.256 1010.01 43.048 1010.01 35.88C1010.01 28.904 1011.99 22.728 1015.96 17.352C1019.99 11.912 1025.56 7.72 1032.66 4.776C1039.83 1.768 1047.96 0.263998 1057.05 0.263998C1066.39 0.263998 1074.58 1.704 1081.62 4.584C1088.66 7.4 1094.1 11.432 1097.94 16.68C1101.78 21.928 1103.7 28.072 1103.7 35.112C1103.7 42.216 1101.69 48.456 1097.65 53.832C1093.69 59.208 1088.12 63.368 1080.95 66.312C1073.85 69.192 1065.72 70.632 1056.57 70.632ZM1056.85 53.736C1061.01 53.736 1064.66 53 1067.8 51.528C1070.93 50.056 1073.37 47.944 1075.09 45.192C1076.89 42.44 1077.78 39.176 1077.78 35.4C1077.78 31.752 1076.89 28.552 1075.09 25.8C1073.37 23.048 1070.93 20.936 1067.8 19.464C1064.66 17.992 1061.01 17.256 1056.85 17.256C1052.63 17.256 1048.92 17.992 1045.72 19.464C1042.58 20.872 1040.15 22.952 1038.42 25.704C1036.69 28.456 1035.83 31.688 1035.83 35.4C1035.83 39.176 1036.69 42.44 1038.42 45.192C1040.21 47.944 1042.68 50.056 1045.81 51.528C1049.01 53 1052.69 53.736 1056.85 53.736ZM1112.35 1.8H1142.4L1175.81 45.576L1173.41 46.44L1172.93 36.936V1.8H1193.67V69H1167.65L1130.02 19.752L1132.23 18.888L1133.09 28.488V69H1112.35V1.8ZM60.376 97.8H84.856V165H60.376V97.8ZM0.76 97.8H25.24V165H0.76V97.8ZM14.68 121.608H66.808V139.464H14.68V121.608ZM140.065 166.632C130.721 166.632 122.529 165.256 115.489 162.504C108.449 159.688 103.009 155.688 99.169 150.504C95.393 145.256 93.505 139.048 93.505 131.88C93.505 124.904 95.489 118.728 99.457 113.352C103.489 107.912 109.057 103.72 116.161 100.776C123.329 97.768 131.457 96.264 140.545 96.264C149.889 96.264 158.081 97.704 165.121 100.584C172.161 103.4 177.601 107.432 181.441 112.68C185.281 117.928 187.201 124.072 187.201 131.112C187.201 138.216 185.185 144.456 181.153 149.832C177.185 155.208 171.617 159.368 164.449 162.312C157.345 165.192 149.217 166.632 140.065 166.632ZM140.353 149.736C144.513 149.736 148.161 149 151.297 147.528C154.433 146.056 156.865 143.944 158.593 141.192C160.385 138.44 161.281 135.176 161.281 131.4C161.281 127.752 160.385 124.552 158.593 121.8C156.865 119.048 154.433 116.936 151.297 115.464C148.161 113.992 144.513 113.256 140.353 113.256C136.129 113.256 132.417 113.992 129.217 115.464C126.081 116.872 123.649 118.952 121.921 121.704C120.193 124.456 119.329 127.688 119.329 131.4C119.329 135.176 120.193 138.44 121.921 141.192C123.713 143.944 126.177 146.056 129.313 147.528C132.513 149 136.193 149.736 140.353 149.736ZM195.854 97.8H244.43C251.086 97.8 256.686 98.6 261.23 100.2C265.838 101.8 269.294 104.2 271.598 107.4C273.902 110.536 275.054 114.408 275.054 119.016C275.054 123.816 273.838 127.912 271.406 131.304C268.974 134.696 265.454 137.288 260.846 139.08C256.238 140.872 250.702 141.768 244.238 141.768H209.774V126.12H242.414C244.974 126.12 246.958 125.544 248.366 124.392C249.838 123.24 250.574 121.672 250.574 119.688C250.574 118.344 250.254 117.224 249.614 116.328C248.974 115.368 248.046 114.664 246.83 114.216C245.614 113.704 244.142 113.448 242.414 113.448H216.014L220.334 107.688V165H195.854V97.8ZM282.104 97.8H349.88V113.832H302.264L306.584 109.512V153.288L302.264 148.968H350.552V165H282.104V97.8ZM296.024 122.952H338.456V138.6H296.024V122.952ZM382.323 97.8H446.931V113.832H402.483L406.803 109.512V165H382.323V97.8ZM396.243 124.008H436.562V139.656H396.243V124.008ZM495.378 166.632C486.034 166.632 477.842 165.256 470.802 162.504C463.762 159.688 458.322 155.688 454.482 150.504C450.706 145.256 448.818 139.048 448.818 131.88C448.818 124.904 450.802 118.728 454.77 113.352C458.802 107.912 464.37 103.72 471.474 100.776C478.642 97.768 486.77 96.264 495.858 96.264C505.202 96.264 513.394 97.704 520.434 100.584C527.474 103.4 532.914 107.432 536.754 112.68C540.594 117.928 542.514 124.072 542.514 131.112C542.514 138.216 540.498 144.456 536.466 149.832C532.498 155.208 526.93 159.368 519.762 162.312C512.658 165.192 504.53 166.632 495.378 166.632ZM495.666 149.736C499.826 149.736 503.474 149 506.61 147.528C509.746 146.056 512.178 143.944 513.906 141.192C515.698 138.44 516.594 135.176 516.594 131.4C516.594 127.752 515.698 124.552 513.906 121.8C512.178 119.048 509.746 116.936 506.61 115.464C503.474 113.992 499.826 113.256 495.666 113.256C491.442 113.256 487.73 113.992 484.53 115.464C481.394 116.872 478.962 118.952 477.234 121.704C475.506 124.456 474.642 127.688 474.642 131.4C474.642 135.176 475.506 138.44 477.234 141.192C479.026 143.944 481.49 146.056 484.626 147.528C487.826 149 491.506 149.736 495.666 149.736ZM551.166 97.8H600.798C610.718 97.8 618.11 99.496 622.974 102.888C627.838 106.28 630.27 111.368 630.27 118.152C630.27 122.568 628.958 126.376 626.334 129.576C623.71 132.712 619.998 135.112 615.198 136.776C610.462 138.44 604.926 139.272 598.59 139.272H565.086V125.16H597.822C600.318 125.16 602.238 124.616 603.582 123.528C604.99 122.376 605.694 120.84 605.694 118.92C605.694 117 605.022 115.528 603.678 114.504C602.334 113.416 600.382 112.872 597.822 112.872H571.326L575.646 107.688V165H551.166V97.8ZM591.198 133.416H615.006L629.022 165H603.774L591.198 133.416ZM651.131 97.8H679.836L699.42 122.856H695.1L714.876 97.8H738.108L706.332 136.104H682.62L651.131 97.8ZM682.14 127.56H706.62V165H682.14V127.56ZM777.753 166.632C768.409 166.632 760.217 165.256 753.177 162.504C746.137 159.688 740.697 155.688 736.857 150.504C733.081 145.256 731.193 139.048 731.193 131.88C731.193 124.904 733.177 118.728 737.145 113.352C741.177 107.912 746.745 103.72 753.849 100.776C761.017 97.768 769.145 96.264 778.233 96.264C787.577 96.264 795.769 97.704 802.809 100.584C809.849 103.4 815.289 107.432 819.129 112.68C822.969 117.928 824.889 124.072 824.889 131.112C824.889 138.216 822.873 144.456 818.841 149.832C814.873 155.208 809.305 159.368 802.137 162.312C795.033 165.192 786.905 166.632 777.753 166.632ZM778.041 149.736C782.201 149.736 785.849 149 788.985 147.528C792.121 146.056 794.553 143.944 796.281 141.192C798.073 138.44 798.969 135.176 798.969 131.4C798.969 127.752 798.073 124.552 796.281 121.8C794.553 119.048 792.121 116.936 788.985 115.464C785.849 113.992 782.201 113.256 778.041 113.256C773.817 113.256 770.105 113.992 766.905 115.464C763.769 116.872 761.337 118.952 759.609 121.704C757.881 124.456 757.017 127.688 757.017 131.4C757.017 135.176 757.881 138.44 759.609 141.192C761.401 143.944 763.865 146.056 767.001 147.528C770.201 149 773.881 149.736 778.041 149.736ZM872.037 166.824C863.717 166.824 856.613 165.672 850.725 163.368C844.901 161 840.421 157.448 837.285 152.712C834.213 147.912 832.677 141.96 832.677 134.856V97.8H857.157V133.032C857.157 136.616 857.829 139.624 859.173 142.056C860.517 144.424 862.373 146.216 864.741 147.432C867.109 148.584 869.893 149.16 873.093 149.16C876.165 149.16 878.853 148.584 881.157 147.432C883.461 146.216 885.253 144.424 886.533 142.056C887.877 139.624 888.549 136.616 888.549 133.032V97.8H910.149V133.32C910.149 140.36 908.613 146.408 905.541 151.464C902.469 156.456 898.053 160.264 892.293 162.888C886.597 165.512 879.845 166.824 872.037 166.824Z" fill="#FAF6ED"/>
</svg>
