<svg class="hero__tagline" width="1200" height="170" viewBox="0 0 1200 170" fill="none" xmlns="http://www.w3.org/2000/svg">
<path d="M281.344 1.53598H349.12V17.568H301.504L305.824 13.248V57.024L301.504 52.704H349.792V68.736H281.344V1.53598ZM295.264 26.688H337.696V42.336H295.264V26.688Z" fill="#F4B860"/>
<path d="M195.094 1.53598H243.67C250.326 1.53598 255.926 2.33598 260.47 3.93598C265.078 5.53598 268.534 7.93598 270.838 11.136C273.142 14.272 274.294 18.144 274.294 22.752C274.294 27.552 273.078 31.648 270.646 35.04C268.214 38.432 264.694 41.024 260.086 42.816C255.478 44.608 249.942 45.504 243.478 45.504H209.014V29.856H241.654C244.214 29.856 246.198 29.28 247.606 28.128C249.078 26.976 249.814 25.408 249.814 23.424C249.814 22.08 249.494 20.96 248.854 20.064C248.214 19.104 247.286 18.4 246.07 17.952C244.854 17.44 243.382 17.184 241.654 17.184H215.254L219.574 11.424V68.736H195.094V1.53598Z" fill="#F4B860"/>
<path d="M139.305 70.368C129.961 70.368 121.769 68.992 114.729 66.24C107.689 63.424 102.249 59.424 98.409 54.24C94.633 48.992 92.745 42.784 92.745 35.616C92.745 28.64 94.729 22.464 98.697 17.088C102.729 11.648 108.297 7.456 115.401 4.512C122.569 1.504 130.697 0 139.785 0C149.129 0 157.321 1.44 164.361 4.32C171.401 7.136 176.841 11.168 180.681 16.416C184.521 21.664 186.441 27.808 186.441 34.848C186.441 41.952 184.425 48.192 180.393 53.568C176.425 58.944 170.857 63.104 163.689 66.048C156.585 68.928 148.457 70.368 139.305 70.368ZM139.593 53.472C143.753 53.472 147.401 52.736 150.537 51.264C153.673 49.792 156.105 47.68 157.833 44.928C159.625 42.176 160.521 38.912 160.521 35.136C160.521 31.488 159.625 28.288 157.833 25.536C156.105 22.784 153.673 20.672 150.537 19.2C147.401 17.728 143.753 16.992 139.593 16.992C135.369 16.992 131.657 17.728 128.457 19.2C125.321 20.608 122.889 22.688 121.161 25.44C119.433 28.192 118.569 31.424 118.569 35.136C118.569 38.912 119.433 42.176 121.161 44.928C122.953 47.68 125.417 49.792 128.553 51.264C131.753 52.736 135.433 53.472 139.593 53.472Z" fill="#F4B860"/>
<path d="M59.616 1.53598H84.096V68.736H59.616V1.53598ZM0 1.53598H24.48V68.736H0V1.53598ZM13.92 25.344H66.048V43.2H13.92V25.344Z" fill="#F4B860"/>
<path class="hero__tagline__letter" d="M891.725 1.53598H916.205V68.736H891.725V1.53598ZM832.109 1.53598H856.589V68.736H832.109V1.53598ZM846.029 25.344H898.157V43.2H846.029V25.344Z" fill="#FAF6ED"/>
<path class="hero__tagline__letter" d="M781.885 70.56C773.501 70.56 765.981 69.216 759.325 66.528C752.669 63.84 747.421 59.904 743.581 54.72C739.805 49.536 737.917 43.392 737.917 36.288C737.917 29.056 739.869 22.688 743.773 17.184C747.741 11.68 753.085 7.456 759.805 4.512C766.525 1.504 773.981 0 782.173 0C793.181 0 802.429 1.984 809.917 5.952C817.405 9.92 822.461 15.712 825.085 23.328L801.853 28.128C800.317 24.224 797.917 21.408 794.653 19.68C791.389 17.888 787.645 16.992 783.421 16.992C779.837 16.992 776.541 17.728 773.533 19.2C770.525 20.608 768.125 22.688 766.333 25.44C764.605 28.192 763.741 31.488 763.741 35.328C763.741 39.104 764.605 42.368 766.333 45.12C768.125 47.872 770.525 49.984 773.533 51.456C776.541 52.864 779.837 53.568 783.421 53.568C787.645 53.568 791.421 52.672 794.749 50.88C798.141 49.088 800.573 46.272 802.045 42.432L825.085 47.52C822.013 55.072 816.669 60.8 809.053 64.704C801.501 68.608 792.445 70.56 781.885 70.56Z" fill="#FAF6ED"/>
<path class="hero__tagline__letter" d="M653.797 1.53598H703.429C713.349 1.53598 720.741 3.23198 725.605 6.62398C730.469 10.016 732.901 15.104 732.901 21.888C732.901 26.304 731.589 30.112 728.965 33.312C726.341 36.448 722.629 38.848 717.829 40.512C713.093 42.176 707.557 43.008 701.221 43.008H667.717V28.896H700.453C702.949 28.896 704.869 28.352 706.213 27.264C707.621 26.112 708.325 24.576 708.325 22.656C708.325 20.736 707.653 19.264 706.309 18.24C704.965 17.152 703.013 16.608 700.453 16.608H673.957L678.277 11.424V68.736H653.797V1.53598ZM693.829 37.152H717.637L731.653 68.736H706.405L693.829 37.152Z" fill="#FAF6ED"/>
<path class="hero__tagline__letter" d="M605.105 70.56C596.785 70.56 589.681 69.408 583.793 67.104C577.969 64.736 573.489 61.184 570.353 56.448C567.281 51.648 565.745 45.696 565.745 38.592V1.53598H590.225V36.768C590.225 40.352 590.897 43.36 592.241 45.792C593.585 48.16 595.441 49.952 597.809 51.168C600.177 52.32 602.961 52.896 606.161 52.896C609.233 52.896 611.921 52.32 614.225 51.168C616.529 49.952 618.321 48.16 619.601 45.792C620.945 43.36 621.617 40.352 621.617 36.768V1.53598H643.217V37.056C643.217 44.096 641.681 50.144 638.609 55.2C635.537 60.192 631.121 64 625.361 66.624C619.665 69.248 612.913 70.56 605.105 70.56Z" fill="#FAF6ED"/>
<path class="hero__tagline__letter" d="M530.6 1.53598H555.08V68.736H530.6V1.53598ZM470.984 1.53598H495.464V68.736H470.984V1.53598ZM484.904 25.344H537.032V43.2H484.904V25.344Z" fill="#FAF6ED"/>
<path class="hero__tagline__letter" d="M420.76 70.56C412.376 70.56 404.856 69.216 398.2 66.528C391.544 63.84 386.296 59.904 382.456 54.72C378.68 49.536 376.792 43.392 376.792 36.288C376.792 29.056 378.744 22.688 382.648 17.184C386.616 11.68 391.96 7.456 398.68 4.512C405.4 1.504 412.856 0 421.048 0C432.056 0 441.304 1.984 448.792 5.952C456.28 9.92 461.336 15.712 463.96 23.328L440.728 28.128C439.192 24.224 436.792 21.408 433.528 19.68C430.264 17.888 426.52 16.992 422.296 16.992C418.712 16.992 415.416 17.728 412.408 19.2C409.4 20.608 407 22.688 405.208 25.44C403.48 28.192 402.616 31.488 402.616 35.328C402.616 39.104 403.48 42.368 405.208 45.12C407 47.872 409.4 49.984 412.408 51.456C415.416 52.864 418.712 53.568 422.296 53.568C426.52 53.568 430.296 52.672 433.624 50.88C437.016 49.088 439.448 46.272 440.92 42.432L463.96 47.52C460.888 55.072 455.544 60.8 447.928 64.704C440.376 68.608 431.32 70.56 420.76 70.56Z" fill="#FAF6ED"/>
<path class="hero__tagline__letter" d="M315.707 110.768L319.931 114.992H286.811V98.0959H368.987V114.992H335.867L340.187 110.768V165.296H315.707V110.768Z" fill="#FAF6ED"/>
<path class="hero__tagline__letter" d="M247.008 167.216C238.24 167.216 230.08 166.288 222.528 164.432C215.04 162.576 209.28 160.08 205.248 156.944L215.136 142.448C218.72 145.264 223.424 147.536 229.248 149.264C235.136 150.992 240.992 151.856 246.816 151.856C249.952 151.856 252.576 151.664 254.688 151.28C256.864 150.896 258.496 150.32 259.584 149.552C260.736 148.784 261.312 147.824 261.312 146.672C261.312 145.52 260.768 144.624 259.68 143.984C258.592 143.28 256.64 142.64 253.824 142.064C251.072 141.488 246.944 140.848 241.44 140.144C233.76 139.184 227.584 137.872 222.912 136.208C218.304 134.544 214.912 132.368 212.736 129.68C210.624 126.928 209.504 123.536 209.376 119.504C209.248 114.704 210.624 110.608 213.504 107.216C216.384 103.76 220.576 101.136 226.08 99.344C231.648 97.488 238.304 96.56 246.048 96.56C253.6 96.56 260.576 97.296 266.976 98.768C273.376 100.24 278.752 102.352 283.104 105.104L273.504 119.792C269.856 117.296 265.6 115.376 260.736 114.032C255.936 112.624 250.944 111.92 245.76 111.92C242.88 111.92 240.48 112.112 238.56 112.496C236.704 112.816 235.296 113.36 234.336 114.128C233.376 114.832 232.896 115.728 232.896 116.816C232.896 117.776 233.376 118.544 234.336 119.12C235.296 119.696 237.152 120.272 239.904 120.848C242.656 121.36 246.944 121.968 252.768 122.672C260.256 123.632 266.336 125.008 271.008 126.8C275.744 128.592 279.232 130.928 281.472 133.808C283.712 136.624 284.832 140.048 284.832 144.08C284.832 149.072 283.36 153.296 280.416 156.752C277.536 160.208 273.28 162.832 267.648 164.624C262.016 166.352 255.136 167.216 247.008 167.216Z" fill="#FAF6ED"/>
<path class="hero__tagline__letter" d="M131.945 98.0959H199.721V114.128H152.105L156.425 109.808V153.584L152.105 149.264H200.393V165.296H131.945V98.0959ZM145.865 123.248H188.297V138.896H145.865V123.248Z" fill="#FAF6ED"/>
<path class="hero__tagline__letter" d="M0 98.0959H25.632L45.984 163.568H32.736L55.584 98.0959H75.936L98.88 163.568H85.632L105.792 98.0959H126.048L104.16 165.296H76.608L56.544 108.08H69.504L49.44 165.296H21.888L0 98.0959Z" fill="#FAF6ED"/>
<path class="hero__tagline__letter" d="M566.518 96.56H605.398C614.678 96.56 622.678 97.904 629.398 100.592C636.118 103.28 641.238 107.152 644.758 112.208C648.342 117.2 650.134 123.088 650.134 129.872C650.134 136.656 648.278 142.608 644.566 147.728C640.918 152.848 635.67 156.816 628.822 159.632C621.974 162.384 614.006 163.76 604.918 163.76H576.79V146.384H604.246C608.662 146.384 612.374 145.744 615.382 144.464C618.39 143.12 620.662 141.232 622.198 138.8C623.734 136.368 624.502 133.488 624.502 130.16C624.502 126.832 623.734 123.984 622.198 121.616C620.726 119.184 618.454 117.328 615.382 116.048C612.374 114.704 608.662 114.032 604.246 114.032H586.678L590.998 109.712V163.76H566.518V96.56Z" fill="#FAF6ED"/>
<path class="hero__tagline__letter" d="M473.705 96.56H503.753L537.161 140.336L534.761 141.2L534.281 131.696V96.56H555.017V163.76H529.001L491.369 114.512L493.577 113.648L494.441 123.248V163.76H473.705V96.56Z" fill="#FAF6ED"/>
<path class="hero__tagline__letter" d="M395.987 96.56H463.763V112.592H416.147L420.467 108.272V152.048L416.147 147.728H464.435V163.76H395.987V96.56ZM409.907 121.712H452.339V137.36H409.907V121.712Z" fill="#FAF6ED"/>
</svg>
