<svg class="hero__tagline" width="271" height="125" viewBox="0 0 271 125" fill="none" xmlns="http://www.w3.org/2000/svg">
<path d="M94.7012 0.600006H117.293V5.94401H101.421L102.861 4.50401V19.096L101.421 17.656H117.517V23H94.7012V0.600006ZM99.3412 8.98401H113.485V14.2H99.3412V8.98401Z" fill="#F4B860"/>
<path d="M65.9512 0.600006H82.1432C84.3618 0.600006 86.2285 0.866673 87.7432 1.40001C89.2792 1.93334 90.4312 2.73334 91.1992 3.80001C91.9672 4.84534 92.3512 6.13601 92.3512 7.67201C92.3512 9.27201 91.9458 10.6373 91.1352 11.768C90.3245 12.8987 89.1512 13.7627 87.6152 14.36C86.0792 14.9573 84.2338 15.256 82.0792 15.256H70.5912V10.04H81.4712C82.3245 10.04 82.9858 9.84801 83.4552 9.46401C83.9458 9.08001 84.1912 8.55734 84.1912 7.89601C84.1912 7.44801 84.0845 7.07467 83.8712 6.77601C83.6578 6.45601 83.3485 6.22134 82.9432 6.07201C82.5378 5.90134 82.0472 5.81601 81.4712 5.81601H72.6712L74.1112 3.89601V23H65.9512V0.600006Z" fill="#F4B860"/>
<path d="M47.355 23.544C44.2403 23.544 41.5096 23.0853 39.163 22.168C36.8163 21.2293 35.003 19.896 33.723 18.168C32.4643 16.4187 31.835 14.3493 31.835 11.96C31.835 9.63468 32.4963 7.57601 33.819 5.78401C35.163 3.97068 37.019 2.57335 39.387 1.59201C41.7763 0.589346 44.4856 0.0880127 47.515 0.0880127C50.6296 0.0880127 53.3603 0.568013 55.707 1.52801C58.0536 2.46668 59.867 3.81068 61.147 5.56001C62.427 7.30935 63.067 9.35735 63.067 11.704C63.067 14.072 62.395 16.152 61.051 17.944C59.7283 19.736 57.8723 21.1227 55.483 22.104C53.115 23.064 50.4056 23.544 47.355 23.544ZM47.451 17.912C48.8376 17.912 50.0536 17.6667 51.099 17.176C52.1443 16.6853 52.955 15.9813 53.531 15.064C54.1283 14.1467 54.427 13.0587 54.427 11.8C54.427 10.584 54.1283 9.51735 53.531 8.60001C52.955 7.68268 52.1443 6.97868 51.099 6.48801C50.0536 5.99735 48.8376 5.75201 47.451 5.75201C46.043 5.75201 44.8056 5.99735 43.739 6.48801C42.6936 6.95735 41.883 7.65068 41.307 8.56801C40.731 9.48535 40.443 10.5627 40.443 11.8C40.443 13.0587 40.731 14.1467 41.307 15.064C41.9043 15.9813 42.7256 16.6853 43.771 17.176C44.8376 17.6667 46.0643 17.912 47.451 17.912Z" fill="#F4B860"/>
<path d="M20.7919 0.600006H28.9519V23H20.7919V0.600006ZM0.919922 0.600006H9.07992V23H0.919922V0.600006ZM5.55992 8.53601H22.9359V14.488H5.55992V8.53601Z" fill="#F4B860"/><path class="hero__tagline__letter" d="M172.532 32.968H180.692V55.368H172.532V32.968ZM152.66 32.968H160.82V55.368H152.66V32.968ZM157.3 40.904H174.676V46.856H157.3V40.904Z" fill="#FAF6ED"/>
<path class="hero__tagline__letter" d="M135.919 55.976C133.124 55.976 130.618 55.528 128.399 54.632C126.18 53.736 124.431 52.424 123.151 50.696C121.892 48.968 121.263 46.92 121.263 44.552C121.263 42.1413 121.914 40.0187 123.215 38.184C124.538 36.3493 126.319 34.9413 128.559 33.96C130.799 32.9573 133.284 32.456 136.015 32.456C139.684 32.456 142.767 33.1173 145.263 34.44C147.759 35.7627 149.444 37.6933 150.319 40.232L142.575 41.832C142.063 40.5307 141.263 39.592 140.175 39.016C139.087 38.4187 137.839 38.12 136.431 38.12C135.236 38.12 134.138 38.3653 133.135 38.856C132.132 39.3253 131.332 40.0187 130.735 40.936C130.159 41.8533 129.871 42.952 129.871 44.232C129.871 45.4907 130.159 46.5787 130.735 47.496C131.332 48.4133 132.132 49.1173 133.135 49.608C134.138 50.0773 135.236 50.312 136.431 50.312C137.839 50.312 139.098 50.0133 140.207 49.416C141.338 48.8187 142.148 47.88 142.639 46.6L150.319 48.296C149.295 50.8133 147.514 52.7227 144.975 54.024C142.458 55.3253 139.439 55.976 135.919 55.976Z" fill="#FAF6ED"/>
<path class="hero__tagline__letter" d="M93.2229 32.968H109.767C113.074 32.968 115.538 33.5333 117.159 34.664C118.78 35.7947 119.591 37.4907 119.591 39.752C119.591 41.224 119.154 42.4933 118.279 43.56C117.404 44.6053 116.167 45.4053 114.567 45.96C112.988 46.5147 111.143 46.792 109.031 46.792H97.8629V42.088H108.775C109.607 42.088 110.247 41.9067 110.695 41.544C111.164 41.16 111.399 40.648 111.399 40.008C111.399 39.368 111.175 38.8773 110.727 38.536C110.279 38.1733 109.628 37.992 108.775 37.992H99.9429L101.383 36.264V55.368H93.2229V32.968ZM106.567 44.84H114.503L119.175 55.368H110.759L106.567 44.84Z" fill="#FAF6ED"/>
<path class="hero__tagline__letter" d="M76.9926 55.976C74.2192 55.976 71.8512 55.592 69.8886 54.824C67.9472 54.0347 66.4539 52.8507 65.4086 51.272C64.3846 49.672 63.8726 47.688 63.8726 45.32V32.968H72.0326V44.712C72.0326 45.9067 72.2566 46.9093 72.7046 47.72C73.1526 48.5093 73.7712 49.1067 74.5606 49.512C75.3499 49.896 76.2779 50.088 77.3446 50.088C78.3686 50.088 79.2646 49.896 80.0326 49.512C80.8006 49.1067 81.3979 48.5093 81.8246 47.72C82.2726 46.9093 82.4966 45.9067 82.4966 44.712V32.968H89.6966V44.808C89.6966 47.1547 89.1846 49.1707 88.1606 50.856C87.1366 52.52 85.6646 53.7893 83.7446 54.664C81.8459 55.5387 79.5952 55.976 76.9926 55.976Z" fill="#FAF6ED"/>
<path class="hero__tagline__letter" d="M52.1574 32.968H60.3174V55.368H52.1574V32.968ZM32.2854 32.968H40.4454V55.368H32.2854V32.968ZM36.9254 40.904H54.3014V46.856H36.9254V40.904Z" fill="#FAF6ED"/>
<path class="hero__tagline__letter" d="M15.5439 55.976C12.7493 55.976 10.2426 55.528 8.02394 54.632C5.80527 53.736 4.05594 52.424 2.77594 50.696C1.51727 48.968 0.887939 46.92 0.887939 44.552C0.887939 42.1413 1.53861 40.0187 2.83994 38.184C4.16261 36.3493 5.94394 34.9413 8.18394 33.96C10.4239 32.9573 12.9093 32.456 15.6399 32.456C19.3093 32.456 22.3919 33.1173 24.8879 34.44C27.3839 35.7627 29.0693 37.6933 29.9439 40.232L22.1999 41.832C21.6879 40.5307 20.8879 39.592 19.7999 39.016C18.7119 38.4187 17.4639 38.12 16.0559 38.12C14.8613 38.12 13.7626 38.3653 12.7599 38.856C11.7573 39.3253 10.9573 40.0187 10.3599 40.936C9.78394 41.8533 9.49594 42.952 9.49594 44.232C9.49594 45.4907 9.78394 46.5787 10.3599 47.496C10.9573 48.4133 11.7573 49.1173 12.7599 49.608C13.7626 50.0773 14.8613 50.312 16.0559 50.312C17.4639 50.312 18.7226 50.0133 19.8319 49.416C20.9626 48.8187 21.7733 47.88 22.2639 46.6L29.9439 48.296C28.9199 50.8133 27.1386 52.7227 24.5999 54.024C22.0826 55.3253 19.0639 55.976 15.5439 55.976Z" fill="#FAF6ED"/>
<path class="hero__tagline__letter" d="M106.123 69.712L107.531 71.12H96.4915V65.488H123.883V71.12H112.843L114.283 69.712V87.888H106.123V69.712Z" fill="#FAF6ED"/>
<path class="hero__tagline__letter" d="M83.224 88.528C80.3013 88.528 77.5813 88.2187 75.064 87.6C72.568 86.9813 70.648 86.1494 69.304 85.104L72.6 80.272C73.7946 81.2107 75.3626 81.968 77.304 82.544C79.2666 83.12 81.2186 83.408 83.16 83.408C84.2053 83.408 85.08 83.344 85.784 83.216C86.5093 83.088 87.0533 82.896 87.416 82.64C87.8 82.384 87.992 82.064 87.992 81.68C87.992 81.296 87.8106 80.9973 87.448 80.784C87.0853 80.5493 86.4346 80.336 85.496 80.144C84.5786 79.952 83.2026 79.7387 81.368 79.504C78.808 79.184 76.7493 78.7467 75.192 78.192C73.656 77.6373 72.5253 76.912 71.8 76.016C71.096 75.0987 70.7226 73.968 70.68 72.624C70.6373 71.024 71.096 69.6587 72.056 68.528C73.016 67.376 74.4133 66.5013 76.248 65.904C78.104 65.2853 80.3226 64.976 82.904 64.976C85.4213 64.976 87.7466 65.2213 89.88 65.712C92.0133 66.2027 93.8053 66.9067 95.256 67.824L92.056 72.72C90.84 71.888 89.4213 71.248 87.8 70.8C86.2 70.3307 84.536 70.096 82.808 70.096C81.848 70.096 81.048 70.16 80.408 70.288C79.7893 70.3947 79.32 70.576 79 70.832C78.68 71.0667 78.52 71.3653 78.52 71.728C78.52 72.048 78.68 72.304 79 72.496C79.32 72.688 79.9386 72.88 80.856 73.072C81.7733 73.2427 83.2026 73.4453 85.144 73.68C87.64 74 89.6666 74.4587 91.224 75.056C92.8026 75.6533 93.9653 76.432 94.712 77.392C95.4586 78.3307 95.832 79.472 95.832 80.816C95.832 82.48 95.3413 83.888 94.36 85.04C93.4 86.192 91.9813 87.0667 90.104 87.664C88.2266 88.24 85.9333 88.528 83.224 88.528Z" fill="#FAF6ED"/>
<path class="hero__tagline__letter" d="M44.8696 65.488H67.4616V70.832H51.5896L53.0296 69.392V83.984L51.5896 82.544H67.6856V87.888H44.8696V65.488ZM49.5096 73.872H63.6536V79.088H49.5096V73.872Z" fill="#FAF6ED"/>
<path class="hero__tagline__letter" d="M0.887939 65.488H9.43194L16.2159 87.312H11.7999L19.4159 65.488H26.1999L33.8479 87.312H29.4319L36.1519 65.488H42.9039L35.6079 87.888H26.4239L19.7359 68.816H24.0559L17.3679 87.888H8.18394L0.887939 65.488Z" fill="#FAF6ED"/>
<path class="hero__tagline__letter" d="M57.7317 97.528H70.6917C73.785 97.528 76.4517 97.976 78.6917 98.872C80.9317 99.768 82.6384 101.059 83.8117 102.744C85.0064 104.408 85.6037 106.371 85.6037 108.632C85.6037 110.893 84.985 112.877 83.7477 114.584C82.5317 116.291 80.7824 117.613 78.4997 118.552C76.217 119.469 73.561 119.928 70.5317 119.928H61.1557V114.136H70.3077C71.7797 114.136 73.017 113.923 74.0197 113.496C75.0224 113.048 75.7797 112.419 76.2917 111.608C76.8037 110.797 77.0597 109.837 77.0597 108.728C77.0597 107.619 76.8037 106.669 76.2917 105.88C75.801 105.069 75.0437 104.451 74.0197 104.024C73.017 103.576 71.7797 103.352 70.3077 103.352H64.4517L65.8917 101.912V119.928H57.7317V97.528Z" fill="#FAF6ED"/>
<path class="hero__tagline__letter" d="M26.7942 97.528H36.8102L47.9462 112.12L47.1462 112.408L46.9862 109.24V97.528H53.8982V119.928H45.2262L32.6822 103.512L33.4182 103.224L33.7062 106.424V119.928H26.7942V97.528Z" fill="#FAF6ED"/>
<path class="hero__tagline__letter" d="M0.887939 97.528H23.4799V102.872H7.60794L9.04794 101.432V116.024L7.60794 114.584H23.7039V119.928H0.887939V97.528ZM5.52794 105.912H19.6719V111.128H5.52794V105.912Z" fill="#FAF6ED"/>
</svg>
