<svg width="311" height="342" viewBox="0 0 311 342" fill="none" xmlns="http://www.w3.org/2000/svg">
<path d="M300.519 300.637C305.88 300.637 310.226 304.983 310.226 310.344V332.292C310.226 337.654 305.88 342 300.519 342H169.053C163.692 342 159.345 337.654 159.345 332.292V194.227C159.345 188.866 163.692 184.52 169.053 184.52H300.519C305.88 184.52 310.226 188.866 310.226 194.227V222.546C310.226 227.908 305.88 232.254 300.519 232.254H262.919C259.384 232.254 256.519 235.119 256.519 238.654V238.654C256.519 242.189 259.384 245.054 262.919 245.054H300.519C305.88 245.054 310.226 249.4 310.226 254.761V277.675C310.226 283.036 305.88 287.382 300.519 287.382H263.146C259.486 287.382 256.519 290.35 256.519 294.01V294.01C256.519 297.67 259.486 300.637 263.146 300.637H300.519Z" fill="#FAF6ED"/>
<path d="M140.035 184.52C145.397 184.52 149.743 188.866 149.743 194.227V267.247C149.743 272.592 145.421 276.932 140.076 276.954L104.304 277.102C98.9715 277.124 94.6552 281.443 94.6365 286.775L94.4767 332.327C94.4579 337.674 90.1173 342 84.7693 342H9.70746C4.34619 342 0 337.654 0 332.292V194.227C0 188.866 4.34617 184.52 9.70745 184.52H140.035ZM105.883 246.019C111.244 246.019 115.59 241.673 115.59 236.312V235.361C115.59 229.999 111.244 225.653 105.883 225.653H104.15C98.7889 225.653 94.4427 229.999 94.4427 235.361V236.312C94.4427 241.673 98.7889 246.019 104.15 246.019H105.883Z" fill="#FAF6ED"/>
<path d="M310.638 74.8686L310.637 93.7879C310.397 134.931 276.97 168.21 235.77 168.21C194.44 168.21 160.932 135.111 160.901 93.7879V74.8686C160.901 33.5198 194.421 0 235.77 0C277.119 0 310.638 33.5198 310.638 74.8686Z" fill="#FAF6ED"/>
<path d="M235.769 0C277.118 0 310.638 33.5196 310.638 74.8682L310.637 93.7881C310.397 134.931 276.969 168.21 235.769 168.21C230.892 168.21 226.124 167.748 221.507 166.867C255.932 160.265 281.977 130.088 282.189 93.7881L282.191 74.8682C282.191 38.383 256.092 7.99366 221.546 1.34961C226.151 0.463921 230.906 2.79766e-05 235.769 0Z" fill="#25282B"/>
<path d="M141.628 5.62256C146.99 5.62256 151.336 9.96873 151.336 15.33V153.168C151.336 158.529 146.99 162.875 141.628 162.875H112.57C107.209 162.875 102.863 158.529 102.863 153.168V124.337C102.863 118.976 98.5168 114.63 93.1555 114.63H92.2017C86.8404 114.63 82.4943 118.976 82.4943 124.337V153.168C82.4943 158.529 78.1481 162.875 72.7868 162.875H9.70746C4.34619 162.875 0 158.529 0 153.168V15.33C0 9.96872 4.34617 5.62256 9.70745 5.62256H72.7868C78.1481 5.62256 82.4943 9.96873 82.4943 15.33V32.3268C82.4943 37.688 86.8404 42.0342 92.2017 42.0342H93.1555C98.5167 42.0342 102.863 37.688 102.863 32.3268V15.33C102.863 9.96874 107.209 5.62256 112.57 5.62256H141.628Z" fill="#FAF6ED"/>
</svg>
