<svg width="512" height="512" viewBox="0 0 512 512" fill="none" xmlns="http://www.w3.org/2000/svg">
<rect width="512" height="512" rx="256" fill="#FAF6ED"/>
<path d="M401.519 385.637C406.88 385.637 411.226 389.983 411.226 395.344V417.293C411.226 422.654 406.88 427 401.519 427H270.053C264.692 427 260.345 422.654 260.345 417.293V279.227C260.345 273.866 264.692 269.52 270.053 269.52H401.519C406.88 269.52 411.226 273.866 411.226 279.227V307.546C411.226 312.908 406.88 317.254 401.519 317.254H363.919C360.384 317.254 357.519 320.119 357.519 323.654V323.654C357.519 327.189 360.384 330.054 363.919 330.054H401.519C406.88 330.054 411.226 334.4 411.226 339.761V362.675C411.226 368.036 406.88 372.383 401.519 372.383H364.146C360.486 372.383 357.519 375.35 357.519 379.01V379.01C357.519 382.67 360.486 385.637 364.146 385.637H401.519Z" fill="#F4B860"/>
<path d="M241.035 269.52C246.397 269.52 250.743 273.866 250.743 279.227V352.247C250.743 357.592 246.421 361.932 241.076 361.954L205.304 362.102C199.971 362.124 195.655 366.443 195.636 371.775L195.477 417.327C195.458 422.675 191.117 427 185.769 427H110.707C105.346 427 101 422.654 101 417.293V279.227C101 273.866 105.346 269.52 110.707 269.52H241.035ZM206.883 331.019C212.244 331.019 216.59 326.673 216.59 321.312V320.361C216.59 315 212.244 310.653 206.883 310.653H205.15C199.789 310.653 195.443 315 195.443 320.361V321.312C195.443 326.673 199.789 331.019 205.15 331.019H206.883Z" fill="#F4B860"/>
<path d="M411.638 159.869L411.637 178.788C411.397 219.931 377.97 253.21 336.77 253.21C295.44 253.21 261.932 220.111 261.901 178.788V159.869C261.901 118.52 295.421 85 336.77 85C378.119 85 411.638 118.52 411.638 159.869Z" fill="#F4B860"/>
<path d="M336.769 85C378.118 85 411.638 118.52 411.638 159.868L411.637 178.788C411.397 219.931 377.969 253.21 336.769 253.21C331.892 253.21 327.124 252.748 322.507 251.867C356.932 245.265 382.977 215.088 383.189 178.788L383.191 159.868C383.191 123.383 357.092 92.9937 322.546 86.3496C327.151 85.4639 331.906 85 336.769 85Z" fill="#32373B"/>
<path d="M242.628 90.6224C247.99 90.6224 252.336 94.9686 252.336 100.33V238.168C252.336 243.529 247.99 247.875 242.628 247.875H213.57C208.209 247.875 203.863 243.529 203.863 238.168V209.337C203.863 203.976 199.517 199.63 194.155 199.63H193.202C187.84 199.63 183.494 203.976 183.494 209.337V238.168C183.494 243.529 179.148 247.875 173.787 247.875H110.707C105.346 247.875 101 243.529 101 238.168V100.33C101 94.9686 105.346 90.6224 110.707 90.6224H173.787C179.148 90.6224 183.494 94.9686 183.494 100.33V117.327C183.494 122.688 187.84 127.034 193.202 127.034H194.155C199.517 127.034 203.863 122.688 203.863 117.327V100.33C203.863 94.9686 208.209 90.6224 213.57 90.6224H242.628Z" fill="#F4B860"/>
</svg>
